<svg xmlns="http://www.w3.org/2000/svg" width="30" height="26" viewBox="0 0 30 26" fill="none">
  <path
    d="M2.03256 18.9695C1.89402 19.0064 1.74739 19.0081 1.60789 18.9746C1.46838 18.9411 1.34107 18.8735 1.23917 18.7789C1.13728 18.6842 1.0645 18.566 1.02839 18.4364C0.99229 18.3068 0.994172 18.1707 1.03385 18.042L2.18196 14.308C1.06653 12.4075 0.725953 10.1972 1.22264 8.08237C1.71934 5.96752 3.02003 4.08975 4.88633 2.79322C6.75263 1.49669 9.05951 0.868242 11.3842 1.02306C13.7089 1.17789 15.8956 2.10561 17.5436 3.63619C19.1916 5.16678 20.1905 7.19769 20.3572 9.35672C20.5239 11.5158 19.8473 13.6583 18.4513 15.3916C17.0553 17.1249 15.0334 18.3329 12.7563 18.7942C10.4792 19.2555 8.09938 18.9392 6.05299 17.9032L2.03256 18.9695Z"
    stroke="#2F372D" stroke-width="2" stroke-linecap="round" stroke-linejoin="round" />
  <path
    d="M10.1622 18.9858C10.6287 20.2158 11.3772 21.3371 12.3561 22.272C13.3349 23.207 14.5207 23.9334 15.8314 24.4011C17.1422 24.8687 18.5466 25.0664 19.9477 24.9805C21.3488 24.8946 22.7131 24.5272 23.9463 23.9036L27.9667 24.9699C28.1053 25.0067 28.2519 25.0085 28.3914 24.975C28.5309 24.9414 28.6582 24.8738 28.7601 24.7792C28.862 24.6846 28.9348 24.5663 28.9709 24.4368C29.007 24.3072 29.0051 24.171 28.9654 24.0424L27.8173 20.3084C28.6006 18.9741 29.0074 17.4774 28.9998 15.9577C28.9921 14.438 28.5703 12.9448 27.7735 11.6174C26.9768 10.29 25.8311 9.17159 24.4434 8.36641C23.0556 7.56123 21.4709 7.09552 19.837 7.0127"
    stroke="#2F372D" stroke-width="2" stroke-linecap="round" stroke-linejoin="round" />
</svg>