<svg
  xmlns="http://www.w3.org/2000/svg"
  width="33"
  height="33"
  viewBox="0 0 33 33"
  fill="none"
>
  <path
    d="M16.5 32C25.0604 32 32 25.0604 32 16.5C32 7.93959 25.0604 1 16.5 1C7.93959 1 1 7.93959 1 16.5C1 25.0604 7.93959 32 16.5 32Z"
    stroke="#2F372D"
    stroke-width="2"
    stroke-linecap="round"
    stroke-linejoin="round"
  />
  <path
    d="M15.2088 15.2073C15.5513 15.2073 15.8799 15.3434 16.1221 15.5856C16.3643 15.8278 16.5004 16.1564 16.5004 16.4989V22.9573C16.5004 23.2998 16.6365 23.6284 16.8788 23.8706C17.121 24.1129 17.4495 24.2489 17.7921 24.2489"
    stroke="#2F372D"
    stroke-width="2"
    stroke-linecap="round"
    stroke-linejoin="round"
  />
  <path
    d="M15.8537 11.3323C16.9238 11.3323 17.7912 10.4648 17.7912 9.39478C17.7912 8.32472 16.9238 7.45728 15.8537 7.45728C14.7837 7.45728 13.9162 8.32472 13.9162 9.39478C13.9162 10.4648 14.7837 11.3323 15.8537 11.3323Z"
    fill="#2F372D"
  />
</svg>