<svg xmlns="http://www.w3.org/2000/svg" width="33" height="34" viewBox="0 0 33 34" fill="none">
  <path
    d="M16.5 32.8567C25.0604 32.8567 32 25.9171 32 17.3567C32 8.79628 25.0604 1.85669 16.5 1.85669C7.93959 1.85669 1 8.79628 1 17.3567C1 25.9171 7.93959 32.8567 16.5 32.8567Z"
    stroke="#2F372D" stroke-width="2" stroke-linecap="round" stroke-linejoin="round" />
  <path
    d="M10.0416 17.3566C10.0416 23.4049 12.1938 28.8073 15.5764 32.4514C15.6939 32.5792 15.8366 32.6812 15.9956 32.751C16.1546 32.8208 16.3263 32.8568 16.4999 32.8568C16.6735 32.8568 16.8453 32.8208 17.0042 32.751C17.1632 32.6812 17.306 32.5792 17.4235 32.4514C20.806 28.8073 22.9582 23.4049 22.9582 17.3566C22.9582 11.3084 20.806 5.90602 17.4235 2.26191C17.306 2.1341 17.1632 2.03207 17.0042 1.96227C16.8453 1.89248 16.6735 1.85645 16.4999 1.85645C16.3263 1.85645 16.1546 1.89248 15.9956 1.96227C15.8366 2.03207 15.6939 2.1341 15.5764 2.26191C12.1938 5.90602 10.0416 11.3084 10.0416 17.3566Z"
    stroke="#2F372D" stroke-width="2" stroke-linecap="round" stroke-linejoin="round" />
  <path d="M1.8816 12.1892H31.1185" stroke="#2F372D" stroke-width="2" stroke-linecap="round"
    stroke-linejoin="round" />
  <path d="M1.8816 22.5237H31.1185" stroke="#2F372D" stroke-width="2" stroke-linecap="round"
    stroke-linejoin="round" />
</svg>