<svg xmlns="http://www.w3.org/2000/svg" width="33" height="34" viewBox="0 0 33 34" fill="none">
  <path
    d="M16.5 32.8564C25.0604 32.8564 32 25.9169 32 17.3564C32 8.79603 25.0604 1.85645 16.5 1.85645C7.93959 1.85645 1 8.79603 1 17.3564C1 25.9169 7.93959 32.8564 16.5 32.8564Z"
    stroke="#2F372D" stroke-width="2" stroke-linecap="round" stroke-linejoin="round" />
  <path
    d="M16.5011 22.5231C20.0679 22.5231 22.9594 19.6316 22.9594 16.0648C22.9594 12.4979 20.0679 9.60645 16.5011 9.60645C12.9343 9.60645 10.0428 12.4979 10.0428 16.0648C10.0428 19.6316 12.9343 22.5231 16.5011 22.5231Z"
    stroke="#2F372D" stroke-width="2" stroke-linecap="round" stroke-linejoin="round" />
  <path
    d="M6.13466 28.88C7.10649 26.9658 8.58941 25.3581 10.419 24.2351C12.2486 23.112 14.3535 22.5176 16.5003 22.5176C18.6471 22.5176 20.7519 23.112 22.5815 24.2351C24.4112 25.3581 25.8941 26.9658 26.8659 28.88"
    stroke="#2F372D" stroke-width="2" stroke-linecap="round" stroke-linejoin="round" />
</svg>